<mxfile host="Electron" agent="Mozilla/5.0 (Windows NT 10.0; Win64; x64) AppleWebKit/537.36 (KHTML, like Gecko) draw.io/24.7.17 Chrome/128.0.6613.36 Electron/32.0.1 Safari/537.36" version="24.7.17">
  <diagram name="Page-1" id="UVqliUqf5tFeHGMHR6hv">
    <mxGraphModel dx="605" dy="815" grid="1" gridSize="10" guides="1" tooltips="1" connect="1" arrows="1" fold="1" page="1" pageScale="1" pageWidth="850" pageHeight="1100" math="0" shadow="0">
      <root>
        <mxCell id="0" />
        <mxCell id="1" parent="0" />
        <mxCell id="zeYSSK9mW3t_hN6tnnoF-1" value="" style="whiteSpace=wrap;html=1;aspect=fixed;fillColor=#FFCCCC;" vertex="1" parent="1">
          <mxGeometry x="80" y="70" width="460" height="460" as="geometry" />
        </mxCell>
        <mxCell id="zeYSSK9mW3t_hN6tnnoF-2" value="&lt;font style=&quot;font-size: 24px;&quot;&gt;(Topic of research)&lt;/font&gt;" style="rounded=0;whiteSpace=wrap;html=1;align=center;" vertex="1" parent="1">
          <mxGeometry x="100" y="170" width="220" height="60" as="geometry" />
        </mxCell>
        <mxCell id="zeYSSK9mW3t_hN6tnnoF-3" value="&lt;font style=&quot;font-size: 18px;&quot;&gt;(Optional Keywords entry)&lt;/font&gt;" style="whiteSpace=wrap;html=1;aspect=fixed;align=center;" vertex="1" parent="1">
          <mxGeometry x="100" y="260" width="220" height="220" as="geometry" />
        </mxCell>
        <mxCell id="zeYSSK9mW3t_hN6tnnoF-4" value="&lt;font style=&quot;font-size: 24px;&quot;&gt;AI Driven R&amp;amp;D&lt;/font&gt;" style="text;html=1;align=center;verticalAlign=middle;whiteSpace=wrap;rounded=0;" vertex="1" parent="1">
          <mxGeometry x="160" y="80" width="280" height="40" as="geometry" />
        </mxCell>
        <mxCell id="zeYSSK9mW3t_hN6tnnoF-5" value="&lt;font style=&quot;font-size: 18px;&quot;&gt;Query&lt;/font&gt;" style="shape=step;perimeter=stepPerimeter;whiteSpace=wrap;html=1;fixedSize=1;fillColor=#FFFFCC;" vertex="1" parent="1">
          <mxGeometry x="400" y="430" width="120" height="80" as="geometry" />
        </mxCell>
        <mxCell id="zeYSSK9mW3t_hN6tnnoF-6" value="&lt;h1 style=&quot;margin-top: 0px;&quot;&gt;Heading&lt;/h1&gt;&lt;p&gt;Lorem ipsum dolor sit amet, consectetur adipisicing elit, sed do eiusmod tempor incididunt ut labore et dolore magna aliqua.&amp;nbsp;&lt;span style=&quot;background-color: initial;&quot;&gt;Lorem ipsum dolor sit amet, consectetur adipisicing elit, sed do eiusmod tempor incididunt ut labore et dolore magna aliqua.&amp;nbsp;&lt;/span&gt;&lt;span style=&quot;background-color: initial;&quot;&gt;Lorem ipsum dolor sit amet, consectetur adipisicing elit, sed do eiusmod tempor incididunt ut labore et dolore magna aliqua.&lt;/span&gt;&lt;/p&gt;" style="text;html=1;whiteSpace=wrap;overflow=hidden;rounded=0;" vertex="1" parent="1">
          <mxGeometry x="340" y="160" width="190" height="260" as="geometry" />
        </mxCell>
      </root>
    </mxGraphModel>
  </diagram>
</mxfile>
